<svg xmlns="http://www.w3.org/2000/svg" width="30" height="30" viewBox="0 0 30 30">
  <path id="Icon_ionic-ios-heart-empty" data-name="Icon ionic-ios-heart-empty" d="M25.3,3.937h-.072a8.135,8.135,0,0,0-6.851,3.9,8.135,8.135,0,0,0-6.851-3.9h-.072a8.325,8.325,0,0,0-8.077,8.475,18.727,18.727,0,0,0,3.447,9.953c4.341,6.173,11.553,11.572,11.553,11.572s7.212-5.4,11.553-11.572a18.727,18.727,0,0,0,3.447-9.953A8.325,8.325,0,0,0,25.3,3.937Zm3,17.19A56.388,56.388,0,0,1,18.375,31.3,56.474,56.474,0,0,1,8.452,21.12a16.6,16.6,0,0,1-3.058-8.708A6.478,6.478,0,0,1,7.168,7.928a5.977,5.977,0,0,1,4.3-1.883h.065a5.866,5.866,0,0,1,2.964.81,6.41,6.41,0,0,1,2.192,2.138,1.984,1.984,0,0,0,3.389,0,6.473,6.473,0,0,1,2.192-2.138,5.866,5.866,0,0,1,2.964-.81H25.3a5.989,5.989,0,0,1,4.3,1.882,6.459,6.459,0,0,1,1.774,4.485A16.805,16.805,0,0,1,28.3,21.128Z" transform="translate(-3.375 -3.938)"/>
</svg>
