<svg xmlns="http://www.w3.org/2000/svg" width="25.335" height="20.577" viewBox="0 0 25.335 20.577">
  <path id="Icon_awesome-twitter" data-name="Icon awesome-twitter" d="M22.731,8.509c.016.225.016.45.016.675A14.672,14.672,0,0,1,7.974,23.957,14.673,14.673,0,0,1,0,21.626a10.741,10.741,0,0,0,1.254.064A10.4,10.4,0,0,0,7.7,19.472a5.2,5.2,0,0,1-4.856-3.6,6.545,6.545,0,0,0,.98.08,5.489,5.489,0,0,0,1.367-.177,5.193,5.193,0,0,1-4.163-5.1v-.064a5.23,5.23,0,0,0,2.35.662A5.2,5.2,0,0,1,1.769,4.329,14.759,14.759,0,0,0,12.475,9.762a5.862,5.862,0,0,1-.129-1.189,5.2,5.2,0,0,1,8.986-3.553,10.223,10.223,0,0,0,3.3-1.254,5.178,5.178,0,0,1-2.283,2.861,10.409,10.409,0,0,0,2.99-.8,11.161,11.161,0,0,1-2.6,2.685Z" transform="translate(0 -3.38)" fill="#3499d4"/>
</svg>
